<svg preserveAspectRatio="none" width="100%" height="100%" overflow="visible" style="display: block;" viewBox="0 0 788.976 944.947" fill="none" xmlns="http://www.w3.org/2000/svg">
<g id="hori lines">
<line id="Line 1" x1="15.5761" y1="1.38949e-08" x2="15.5761" y2="798.52" stroke="var(--stroke-0, white)" stroke-opacity="0.08" stroke-width="0.635758"/>
<line id="Line 9" x1="340.693" y1="1.42252e-05" x2="340.693" y2="798.52" stroke="var(--stroke-0, white)" stroke-opacity="0.08" stroke-width="0.635758"/>
<line id="Line 5" x1="178.134" y1="7.11954e-06" x2="178.134" y2="798.52" stroke="var(--stroke-0, white)" stroke-opacity="0.08" stroke-width="0.635758"/>
<line id="Line 10" x1="503.871" y1="2.13579e-05" x2="503.871" y2="798.52" stroke="var(--stroke-0, white)" stroke-opacity="0.08" stroke-width="0.635758"/>
<line id="Line 17" x1="666.429" y1="2.84636e-05" x2="666.429" y2="798.52" stroke="var(--stroke-0, white)" stroke-opacity="0.08" stroke-width="0.635758"/>
<line id="Line 3" x1="96.8552" y1="3.56672e-06" x2="96.8552" y2="798.52" stroke="var(--stroke-0, white)" stroke-opacity="0.08" stroke-width="0.635758"/>
<line id="Line 11" x1="421.972" y1="1.7778e-05" x2="421.972" y2="798.52" stroke="var(--stroke-0, white)" stroke-opacity="0.08" stroke-width="0.635758"/>
<line id="Line 6" x1="259.413" y1="1.06724e-05" x2="259.413" y2="798.52" stroke="var(--stroke-0, white)" stroke-opacity="0.08" stroke-width="0.635758"/>
<line id="Line 12" x1="585.15" y1="2.49108e-05" x2="585.15" y2="798.52" stroke="var(--stroke-0, white)" stroke-opacity="0.08" stroke-width="0.635758"/>
<line id="Line 18" x1="747.708" y1="3.20164e-05" x2="747.708" y2="798.521" stroke="var(--stroke-0, white)" stroke-opacity="0.08" stroke-width="0.635758"/>
<line id="Line 2" x1="55.9055" y1="1.77674e-06" x2="55.9055" y2="798.52" stroke="var(--stroke-0, white)" stroke-opacity="0.08" stroke-width="0.635758"/>
<line id="Line 13" x1="381.642" y1="1.60152e-05" x2="381.642" y2="798.52" stroke="var(--stroke-0, white)" stroke-opacity="0.08" stroke-width="0.635758"/>
<line id="Line 7" x1="218.464" y1="8.88239e-06" x2="218.464" y2="798.52" stroke="var(--stroke-0, white)" stroke-opacity="0.08" stroke-width="0.635758"/>
<line id="Line 14" x1="544.201" y1="2.31208e-05" x2="544.201" y2="798.52" stroke="var(--stroke-0, white)" stroke-opacity="0.08" stroke-width="0.635758"/>
<line id="Line 19" x1="706.759" y1="3.02264e-05" x2="706.759" y2="798.52" stroke="var(--stroke-0, white)" stroke-opacity="0.08" stroke-width="0.635758"/>
<line id="Line 4" x1="137.185" y1="5.32956e-06" x2="137.185" y2="798.52" stroke="var(--stroke-0, white)" stroke-opacity="0.08" stroke-width="0.635758"/>
<line id="Line 15" x1="462.921" y1="1.9568e-05" x2="462.921" y2="798.52" stroke="var(--stroke-0, white)" stroke-opacity="0.08" stroke-width="0.635758"/>
<line id="Line 8" x1="300.363" y1="1.24623e-05" x2="300.363" y2="798.52" stroke="var(--stroke-0, white)" stroke-opacity="0.08" stroke-width="0.635758"/>
<line id="Line 16" x1="625.48" y1="2.66736e-05" x2="625.48" y2="798.52" stroke="var(--stroke-0, white)" stroke-opacity="0.08" stroke-width="0.635758"/>
<line id="Line 20" x1="788.658" y1="3.38064e-05" x2="788.658" y2="798.521" stroke="var(--stroke-0, white)" stroke-opacity="0.08" stroke-width="0.635758"/>
</g>
</svg>
