<svg preserveAspectRatio="none" width="100%" height="100%" overflow="visible" style="display: block;" viewBox="0 0 988.922 1184" fill="none" xmlns="http://www.w3.org/2000/svg">
<g id="hori lines">
<line id="Line 1" x1="19.5235" y1="1.74163e-08" x2="19.5234" y2="1000.89" stroke="var(--stroke-0, white)" stroke-opacity="0.08" stroke-width="0.796875"/>
<line id="Line 9" x1="427.032" y1="1.78302e-05" x2="427.032" y2="1000.89" stroke="var(--stroke-0, white)" stroke-opacity="0.08" stroke-width="0.796875"/>
<line id="Line 5" x1="223.278" y1="8.92381e-06" x2="223.278" y2="1000.89" stroke="var(--stroke-0, white)" stroke-opacity="0.08" stroke-width="0.796875"/>
<line id="Line 10" x1="631.565" y1="2.67706e-05" x2="631.564" y2="1000.89" stroke="var(--stroke-0, white)" stroke-opacity="0.08" stroke-width="0.796875"/>
<line id="Line 17" x1="835.319" y1="3.5677e-05" x2="835.319" y2="1000.89" stroke="var(--stroke-0, white)" stroke-opacity="0.08" stroke-width="0.796875"/>
<line id="Line 3" x1="121.401" y1="4.47061e-06" x2="121.401" y2="1000.89" stroke="var(--stroke-0, white)" stroke-opacity="0.08" stroke-width="0.796875"/>
<line id="Line 11" x1="528.91" y1="2.22834e-05" x2="528.91" y2="1000.89" stroke="var(--stroke-0, white)" stroke-opacity="0.08" stroke-width="0.796875"/>
<line id="Line 6" x1="325.155" y1="1.3377e-05" x2="325.155" y2="1000.89" stroke="var(--stroke-0, white)" stroke-opacity="0.08" stroke-width="0.796875"/>
<line id="Line 12" x1="733.442" y1="3.12238e-05" x2="733.442" y2="1000.89" stroke="var(--stroke-0, white)" stroke-opacity="0.08" stroke-width="0.796875"/>
<line id="Line 2" x1="70.0732" y1="2.22702e-06" x2="70.0732" y2="1000.89" stroke="var(--stroke-0, white)" stroke-opacity="0.08" stroke-width="0.796875"/>
<line id="Line 13" x1="478.36" y1="2.00738e-05" x2="478.36" y2="1000.89" stroke="var(--stroke-0, white)" stroke-opacity="0.08" stroke-width="0.796875"/>
<line id="Line 7" x1="273.828" y1="1.11334e-05" x2="273.828" y2="1000.89" stroke="var(--stroke-0, white)" stroke-opacity="0.08" stroke-width="0.796875"/>
<line id="Line 14" x1="682.114" y1="2.89802e-05" x2="682.114" y2="1000.89" stroke="var(--stroke-0, white)" stroke-opacity="0.08" stroke-width="0.796875"/>
<line id="Line 19" x1="885.869" y1="3.78866e-05" x2="885.869" y2="1000.89" stroke="var(--stroke-0, white)" stroke-opacity="0.08" stroke-width="0.796875"/>
<line id="Line 4" x1="171.951" y1="6.68021e-06" x2="171.951" y2="1000.89" stroke="var(--stroke-0, white)" stroke-opacity="0.08" stroke-width="0.796875"/>
<line id="Line 15" x1="580.237" y1="2.4527e-05" x2="580.237" y2="1000.89" stroke="var(--stroke-0, white)" stroke-opacity="0.08" stroke-width="0.796875"/>
<line id="Line 8" x1="376.483" y1="1.56206e-05" x2="376.483" y2="1000.89" stroke="var(--stroke-0, white)" stroke-opacity="0.08" stroke-width="0.796875"/>
<line id="Line 16" x1="783.992" y1="3.34334e-05" x2="783.991" y2="1000.89" stroke="var(--stroke-0, white)" stroke-opacity="0.08" stroke-width="0.796875"/>
<line id="Line 20" x1="988.524" y1="4.23738e-05" x2="988.523" y2="1000.89" stroke="var(--stroke-0, white)" stroke-opacity="0.08" stroke-width="0.796875"/>
</g>
</svg>
